<svg width="8" height="6" viewBox="0 0 8 6" fill="none" xmlns="http://www.w3.org/2000/svg">
<path d="M3.51 0.676555C3.53456 0.653668 3.55426 0.626068 3.56793 0.595401C3.58159 0.564735 3.58894 0.53163 3.58953 0.498063C3.59012 0.464495 3.58395 0.431152 3.57137 0.400023C3.5588 0.368893 3.54009 0.340615 3.51635 0.316876C3.49261 0.293136 3.46433 0.274421 3.4332 0.261848C3.40207 0.249274 3.36873 0.243099 3.33516 0.243691C3.30159 0.244284 3.26849 0.251631 3.23782 0.265295C3.20715 0.278959 3.17955 0.29866 3.15667 0.323222L1.07333 2.40656C1.02652 2.45343 1.00022 2.51697 1.00022 2.58322C1.00022 2.64947 1.02652 2.71301 1.07333 2.75989L3.15667 4.84322C3.17955 4.86778 3.20715 4.88749 3.23782 4.90115C3.26849 4.91481 3.30159 4.92216 3.33516 4.92275C3.36873 4.92334 3.40207 4.91717 3.4332 4.9046C3.46433 4.89202 3.49261 4.87331 3.51635 4.84957C3.54009 4.82583 3.5588 4.79755 3.57137 4.76642C3.58395 4.73529 3.59012 4.70195 3.58953 4.66838C3.58894 4.63481 3.58159 4.60171 3.56793 4.57104C3.55426 4.54038 3.53456 4.51278 3.51 4.48989L1.85333 2.83322H5.66667C5.8089 2.83313 5.94976 2.86107 6.08119 2.91544C6.21262 2.96981 6.33205 3.04955 6.43266 3.15009C6.53326 3.25064 6.61307 3.37002 6.66752 3.50142C6.72197 3.63281 6.75 3.77365 6.75 3.91589V5.41656C6.75 5.48286 6.77634 5.54645 6.82322 5.59333C6.87011 5.64022 6.9337 5.66656 7 5.66656C7.0663 5.66656 7.12989 5.64022 7.17678 5.59333C7.22366 5.54645 7.25 5.48286 7.25 5.41656V3.91589C7.25 3.70799 7.20904 3.50214 7.12946 3.31007C7.04989 3.11801 6.93325 2.94351 6.78621 2.79654C6.63918 2.64957 6.46463 2.533 6.27253 2.4535C6.08044 2.37401 5.87456 2.33313 5.66667 2.33322H1.85333L3.51 0.676555Z" fill="#3770AC" stroke="#3770AC" stroke-width="0.4"/>
</svg>
