<svg width="135" height="23" viewBox="0 0 135 23" fill="none" xmlns="http://www.w3.org/2000/svg">
<path fill-rule="evenodd" clip-rule="evenodd" d="M14.2046 1.25131C14.3905 0.802437 14.8285 0.509766 15.3144 0.509766H40.3537C40.6964 0.509766 41.0229 0.656182 41.2508 0.912158C41.4787 1.16813 41.5865 1.50929 41.5469 1.84975L39.2706 21.4259C39.2002 22.0316 38.6872 22.4884 38.0774 22.4884H11.6722C11.0088 22.4884 10.471 21.9506 10.471 21.2872C10.471 20.6238 11.0088 20.0859 11.6722 20.0859H37.0077L38.8306 4.40933L26.9759 13.5871C26.4977 13.9573 25.8188 13.9143 25.3911 13.4867L14.465 2.56041C14.1214 2.21685 14.0186 1.70018 14.2046 1.25131ZM36.8398 2.91224H18.2144L26.3418 11.0397L36.8398 2.91224ZM4.09735 7.6294C4.09735 6.96598 4.63516 6.42816 5.29858 6.42816H13.9486C14.612 6.42816 15.1498 6.96598 15.1498 7.6294C15.1498 8.29283 14.612 8.83064 13.9486 8.83064H5.29858C4.63516 8.83064 4.09735 8.29283 4.09735 7.6294ZM0 11.7267C0 11.0633 0.537813 10.5255 1.20124 10.5255H18.0459C18.7093 10.5255 19.2471 11.0633 19.2471 11.7267C19.2471 12.3901 18.7093 12.9279 18.0459 12.9279H1.20124C0.537813 12.9279 0 12.3901 0 11.7267ZM6.37365 16.2793C6.37365 15.6159 6.91146 15.0781 7.57489 15.0781H21.2327C21.8961 15.0781 22.4339 15.6159 22.4339 16.2793C22.4339 16.9428 21.8961 17.4806 21.2327 17.4806H7.57489C6.91146 17.4806 6.37365 16.9428 6.37365 16.2793Z" fill="white"/>
<path d="M63.2821 21.4356H59.5329L59.3919 6.2132H59.3356L53.8667 21.4356H50.1175L49.7793 1.47727H53.0774L52.9647 17.1789H53.0492L58.5463 1.47727H61.9572L62.07 17.1789H62.1546L67.4825 1.47727H70.5833L63.2821 21.4356ZM82.895 6.32587C82.895 7.45352 82.7352 8.44956 82.4157 9.31399C82.115 10.1785 81.6828 10.9115 81.119 11.5128C80.5552 12.0954 79.8786 12.5464 79.0893 12.8659C78.3 13.1667 77.4261 13.317 76.4677 13.317H74.0434L72.6057 21.4356H69.4485L72.9157 1.47727H77.9899C78.6477 1.47727 79.2679 1.57123 79.8505 1.75916C80.4518 1.9471 80.978 2.23839 81.4291 2.63305C81.8801 3.02771 82.2372 3.53512 82.5003 4.15529C82.7634 4.75671 82.895 5.48025 82.895 6.32587ZM79.794 6.77691C79.794 5.98762 79.5967 5.36746 79.2021 4.91643C78.8262 4.44658 78.2436 4.21167 77.4543 4.21167H75.5938L74.4944 10.6953H76.4959C77.5106 10.6953 78.3094 10.3477 78.892 9.65224C79.4934 8.95693 79.794 7.99852 79.794 6.77691ZM99.2912 5.14189C98.5959 4.27745 97.6939 3.8452 96.585 3.8452C96.228 3.8452 95.8615 3.92038 95.4856 4.07072C95.1286 4.20228 94.7997 4.409 94.499 4.69085C94.2171 4.95395 93.9822 5.29231 93.7943 5.70571C93.6063 6.11923 93.5124 6.59837 93.5124 7.14338C93.5124 7.85751 93.7097 8.44015 94.1043 8.89118C94.499 9.3234 95.0252 9.73692 95.683 10.1315C96.0964 10.3946 96.5099 10.6859 96.9233 11.0053C97.3555 11.3249 97.7408 11.7008 98.079 12.133C98.4174 12.5464 98.6899 13.0257 98.8966 13.5707C99.1033 14.0968 99.2067 14.7076 99.2067 15.403C99.2067 16.4742 99.0282 17.4139 98.6711 18.222C98.3327 19.0301 97.863 19.7066 97.2615 20.2516C96.679 20.7966 96.0024 21.21 95.2319 21.4919C94.4614 21.7739 93.6438 21.9149 92.7794 21.9149C91.6706 21.9149 90.6464 21.7175 89.7067 21.3228C88.7858 20.9094 88.0717 20.3832 87.5643 19.7442L89.5658 17.3763C89.9416 17.865 90.4114 18.2595 90.9753 18.5603C91.5391 18.861 92.1404 19.0113 92.7794 19.0113C93.6815 19.0113 94.4238 18.7388 95.0064 18.1938C95.6078 17.6488 95.9084 16.8689 95.9084 15.8541C95.9084 15.1399 95.7111 14.5291 95.3165 14.0217C94.9406 13.5143 94.3487 13.0162 93.5406 12.5277C93.1271 12.2833 92.7231 12.0108 92.3284 11.7102C91.9337 11.3906 91.586 11.0336 91.2853 10.639C90.9847 10.2255 90.7404 9.76503 90.5525 9.25766C90.3832 8.73147 90.2987 8.1206 90.2987 7.42529C90.2987 6.46688 90.4585 5.59293 90.7779 4.80364C91.1162 4.01435 91.5672 3.3378 92.131 2.774C92.6949 2.2102 93.3619 1.77796 94.1325 1.47727C94.903 1.15779 95.7393 0.998047 96.6414 0.998047C97.6562 0.998047 98.5677 1.16718 99.3758 1.50546C100.184 1.82494 100.832 2.27598 101.321 2.85857L99.2912 5.14189ZM117.989 21.4356H114.861L117.595 6.01585H117.51L110.801 21.4356H108.151L106.939 6.01585H106.854L104.176 21.4356H101.244L104.768 1.47727H109.082L110.35 16.1641H110.462L116.806 1.47727H121.513L117.989 21.4356ZM132.739 5.14189C132.044 4.27745 131.142 3.8452 130.033 3.8452C129.676 3.8452 129.31 3.92038 128.933 4.07072C128.576 4.20228 128.248 4.409 127.947 4.69085C127.665 4.95395 127.43 5.29231 127.242 5.70571C127.054 6.11923 126.96 6.59837 126.96 7.14338C126.96 7.85751 127.157 8.44015 127.552 8.89118C127.947 9.3234 128.473 9.73692 129.131 10.1315C129.544 10.3946 129.958 10.6859 130.371 11.0053C130.804 11.3249 131.189 11.7008 131.527 12.133C131.865 12.5464 132.138 13.0257 132.344 13.5707C132.551 14.0968 132.655 14.7076 132.655 15.403C132.655 16.4742 132.476 17.4139 132.119 18.222C131.781 19.0301 131.31 19.7066 130.71 20.2516C130.127 20.7966 129.45 21.21 128.679 21.4919C127.909 21.7739 127.091 21.9149 126.228 21.9149C125.118 21.9149 124.094 21.7175 123.155 21.3228C122.234 20.9094 121.52 20.3832 121.012 19.7442L123.014 17.3763C123.389 17.865 123.86 18.2595 124.423 18.5603C124.986 18.861 125.588 19.0113 126.228 19.0113C127.129 19.0113 127.871 18.7388 128.454 18.1938C129.056 17.6488 129.356 16.8689 129.356 15.8541C129.356 15.1399 129.159 14.5291 128.765 14.0217C128.388 13.5143 127.796 13.0162 126.988 12.5277C126.575 12.2833 126.171 12.0108 125.776 11.7102C125.382 11.3906 125.034 11.0336 124.734 10.639C124.432 10.2255 124.188 9.76503 124 9.25766C123.831 8.73147 123.746 8.1206 123.746 7.42529C123.746 6.46688 123.906 5.59293 124.226 4.80364C124.564 4.01435 125.015 3.3378 125.579 2.774C126.143 2.2102 126.81 1.77796 127.58 1.47727C128.351 1.15779 129.187 0.998047 130.09 0.998047C131.104 0.998047 132.015 1.16718 132.824 1.50546C133.632 1.82494 134.28 2.27598 134.769 2.85857L132.739 5.14189Z" fill="white"/>
</svg>
