<svg width="24" height="25" viewBox="0 0 24 25" fill="none" xmlns="http://www.w3.org/2000/svg">
<path d="M2.14945 9.14958C2.27447 8.97595 2.46895 8.88565 2.71898 8.87176C3.17739 8.83704 3.44132 9.05235 3.50383 9.52464C3.78165 11.4138 4.0942 13.0113 4.41369 14.324L6.39317 10.5595C6.57375 10.2192 6.80296 10.0386 7.07383 10.0178C7.46973 9.98999 7.71282 10.247 7.817 10.7748C8.04621 11.9764 8.33097 12.9974 8.67825 13.8656C8.9144 11.5736 9.31029 9.92054 9.87288 8.89955C10.0118 8.64951 10.2063 8.51754 10.4702 8.50365C10.6786 8.48281 10.8661 8.55227 11.0397 8.68423C11.2134 8.8162 11.3037 8.98984 11.3175 9.1982C11.3245 9.35795 11.2967 9.49686 11.2273 9.62883C10.873 10.2817 10.5883 11.3722 10.3521 12.8932C10.1229 14.3657 10.0465 15.5117 10.1021 16.3382C10.1229 16.5674 10.0812 16.7619 9.99095 16.9355C9.87983 17.1369 9.72008 17.2411 9.51171 17.262C9.27556 17.2828 9.03247 17.1717 8.79632 16.9286C7.95591 16.0673 7.28914 14.7894 6.80296 13.0808C6.21258 14.2407 5.78196 15.1019 5.50414 15.6853C4.96934 16.7063 4.51788 17.2272 4.14282 17.255C3.89972 17.2759 3.69136 17.0675 3.51077 16.6299C3.05237 15.4492 2.55229 13.1572 2.01749 9.77468C1.96887 9.5177 2.02443 9.30933 2.14945 9.14958ZM21.5692 10.5665C21.2427 9.99694 20.7635 9.65661 20.1245 9.5177C19.9508 9.48297 19.7911 9.46213 19.6383 9.46213C18.7701 9.46213 18.0686 9.91359 17.513 10.8165C17.0407 11.5875 16.8115 12.4348 16.8115 13.3655C16.8115 14.0601 16.9573 14.6574 17.2421 15.1575C17.5685 15.727 18.0478 16.0673 18.6868 16.2062C18.8604 16.241 19.0201 16.2618 19.1729 16.2618C20.0481 16.2618 20.7565 15.8103 21.2983 14.9074C21.7706 14.1295 21.9998 13.2822 21.9998 12.3515C22.0067 11.643 21.8539 11.0527 21.5692 10.5665ZM20.4301 13.0669C20.3051 13.6642 20.0759 14.1087 19.7425 14.4074C19.4785 14.6435 19.2355 14.7407 19.0132 14.6991C18.7979 14.6504 18.6173 14.4629 18.4784 14.1087C18.3673 13.8309 18.3186 13.5461 18.3186 13.2891C18.3186 13.0599 18.3395 12.8377 18.3812 12.6293C18.4645 12.2612 18.6173 11.9 18.8604 11.5527C19.1591 11.1082 19.4716 10.9276 19.798 10.9901C20.0134 11.0388 20.1939 11.2263 20.3328 11.5805C20.444 11.8583 20.4926 12.1431 20.4926 12.4001C20.4926 12.6362 20.4718 12.8585 20.4301 13.0669ZM15.9085 10.5665C15.5821 9.99694 15.0959 9.65661 14.4639 9.5177C14.2902 9.48297 14.1305 9.46213 13.9777 9.46213C13.1095 9.46213 12.408 9.91359 11.8524 10.8165C11.3801 11.5875 11.1509 12.4348 11.1509 13.3655C11.1509 14.0601 11.2967 14.6574 11.5815 15.1575C11.9079 15.727 12.3872 16.0673 13.0261 16.2062C13.1998 16.241 13.3595 16.2618 13.5123 16.2618C14.3875 16.2618 15.0959 15.8103 15.6377 14.9074C16.11 14.1295 16.3392 13.2822 16.3392 12.3515C16.3461 11.643 16.2003 11.0527 15.9085 10.5665ZM14.7625 13.0669C14.6375 13.6642 14.4083 14.1087 14.0749 14.4074C13.811 14.6435 13.5679 14.7407 13.3456 14.6991C13.1303 14.6504 12.9497 14.4629 12.8108 14.1087C12.6997 13.8309 12.6511 13.5461 12.6511 13.2891C12.6511 13.0599 12.6719 12.8377 12.7136 12.6293C12.7969 12.2612 12.9497 11.9 13.1928 11.5527C13.4915 11.1082 13.8041 10.9276 14.1305 10.9901C14.3458 11.0388 14.5264 11.2263 14.6653 11.5805C14.7764 11.8583 14.825 12.1431 14.825 12.4001C14.8389 12.6362 14.8112 12.8585 14.7625 13.0669Z" fill="#171717"/>
</svg>
