<svg width="24" height="25" viewBox="0 0 24 25" fill="none" xmlns="http://www.w3.org/2000/svg">
<path d="M5.33301 20.832C5.33301 17.1501 8.31777 14.1654 11.9997 14.1654C15.6816 14.1654 18.6663 17.1501 18.6663 20.832H5.33301ZM12.833 15.9012V19.1654H16.7152C16.1183 17.4766 14.64 16.2043 12.833 15.9012ZM11.1663 19.1654V15.9012C9.35938 16.2043 7.88106 17.4766 7.28418 19.1654H11.1663ZM11.9997 13.332C9.23717 13.332 6.99967 11.0945 6.99967 8.33203C6.99967 5.56953 9.23717 3.33203 11.9997 3.33203C14.7622 3.33203 16.9997 5.56953 16.9997 8.33203C16.9997 11.0945 14.7622 13.332 11.9997 13.332ZM11.9997 11.6654C13.8417 11.6654 15.333 10.1741 15.333 8.33203C15.333 6.49001 13.8417 4.9987 11.9997 4.9987C10.1576 4.9987 8.66634 6.49001 8.66634 8.33203C8.66634 10.1741 10.1576 11.6654 11.9997 11.6654Z" fill="#171717"/>
</svg>
