<svg width="20" height="20" viewBox="0 0 20 20" fill="none" xmlns="http://www.w3.org/2000/svg">
<g clip-path="url(#clip0_9378_9905)">
<path d="M4.22625 16.4688V16.2181L4.02547 16.0682C1.86636 14.4554 0.5 11.9993 0.5 9.25875C0.5 4.45673 4.71666 0.5 10 0.5C15.2833 0.5 19.5 4.45668 19.5 9.26C19.5 14.062 15.2833 18.0187 10 18.0187C9.04819 18.0187 8.13049 17.8888 7.26449 17.6493L7.06873 17.5952L6.89069 17.6929L4.22625 19.1552V16.4688Z" stroke="white"/>
<path d="M10.9938 12.4688L8.44751 9.75251L3.47876 12.4688L8.94376 6.66626L11.5525 9.38251L16.46 6.66626L10.9938 12.4688Z" fill="#FAFAFA"/>
<path d="M10.9938 12.4688L8.44751 9.75251L3.47876 12.4688L8.94376 6.66626L11.5525 9.38251L16.46 6.66626L10.9938 12.4688Z" stroke="white"/>
</g>
<defs>
<clipPath id="clip0_9378_9905">
<rect width="20" height="20" fill="white"/>
</clipPath>
</defs>
</svg>
