<svg width="63" height="16" viewBox="0 0 63 16" fill="none" xmlns="http://www.w3.org/2000/svg">
<g clip-path="url(#clip0_10192_991)">
<path d="M15.0016 10.9636L14.9929 10.9372L20.5052 6.13114V3.81543H11.6616V6.13114H16.9439L16.9526 6.15332L11.4941 10.9636V13.2793H20.594V10.9636H15.0016Z" fill="#201515"/>
<path d="M26.0246 3.59521C25.0045 3.59521 24.1732 3.74171 23.5306 4.03478C22.932 4.29015 22.4278 4.71095 22.0834 5.24254C21.7538 5.77761 21.5469 6.37306 21.4762 6.98971L24.1596 7.34886C24.2566 6.80435 24.4508 6.41841 24.742 6.191C25.073 5.95315 25.4809 5.83298 25.8951 5.85129C26.4398 5.85129 26.8348 5.98993 27.0802 6.26726C27.3235 6.5446 27.4472 6.92869 27.4472 7.43483V7.68719H24.8672C23.5539 7.68719 22.6104 7.96452 22.0368 8.51919C21.4631 9.07383 21.1768 9.806 21.1777 10.7156C21.1777 11.6475 21.4641 12.3408 22.0368 12.7956C22.6095 13.2504 23.3297 13.4764 24.1974 13.4737C25.2739 13.4737 26.102 13.121 26.6813 12.4157C27.0237 11.9822 27.268 11.486 27.3991 10.9583H27.4966L27.8665 13.274H30.2979V7.40986C30.2979 6.19793 29.9627 5.25919 29.2919 4.59359C28.6212 3.92799 27.532 3.59521 26.0246 3.59521ZM26.875 10.8238C26.4891 11.1302 25.9839 11.2828 25.3549 11.2828C24.8366 11.2828 24.4765 11.1963 24.2746 11.0235C24.1762 10.9417 24.098 10.8403 24.0454 10.7264C23.9928 10.6126 23.9672 10.4891 23.9703 10.3648C23.9646 10.2476 23.9839 10.1304 24.0272 10.0205C24.0705 9.91063 24.1369 9.81027 24.2222 9.72557C24.3145 9.64314 24.4233 9.57941 24.5422 9.53817C24.6611 9.49694 24.7875 9.47907 24.9138 9.48566H27.4516V9.64513C27.4567 9.87054 27.4073 10.0941 27.3075 10.2984C27.2075 10.5028 27.0596 10.6825 26.875 10.8238Z" fill="#201515"/>
<path d="M44.9995 3.81543H42.127V13.2807H44.9995V3.81543Z" fill="#201515"/>
<path d="M61.9595 3.81543C61.1481 3.81543 60.5084 4.08813 60.0405 4.63356C59.7048 5.02551 59.4495 5.60467 59.2749 6.37102H59.1903L58.8146 3.81543H56.3613V13.2793H59.2341V8.42602C59.2341 7.81407 59.3846 7.34491 59.6854 7.01858C59.9863 6.69225 60.5415 6.5291 61.3509 6.5291H62.4414V3.81543H61.9595Z" fill="#201515"/>
<path d="M53.5119 4.12469C52.8415 3.74474 51.9954 3.55523 50.9744 3.55616C49.3669 3.55616 48.109 3.99203 47.2005 4.86377C46.2918 5.7355 45.8376 6.93727 45.8376 8.46905C45.8145 9.39514 46.0268 10.3128 46.4564 11.1439C46.8497 11.8845 47.4622 12.4991 48.2182 12.9119C48.979 13.3306 49.8842 13.5405 50.9336 13.5414C51.8411 13.5414 52.5991 13.4083 53.2078 13.142C53.78 12.9029 54.2781 12.5282 54.6551 12.0535C55.0138 11.5876 55.2803 11.0632 55.4411 10.506L52.9662 9.84597C52.8618 10.2083 52.6612 10.5388 52.3838 10.8055C52.104 11.0718 51.6357 11.2049 50.9787 11.2049C50.1972 11.2049 49.6148 10.9918 49.2315 10.5657C48.9533 10.2578 48.7787 9.81824 48.7015 9.24835H55.4791C55.5068 8.98209 55.5213 8.75885 55.5213 8.57858V7.98927C55.5376 7.19756 55.366 6.41257 55.0191 5.69298C54.6943 5.03746 54.1689 4.49077 53.5119 4.12469ZM50.8914 5.81223C52.0562 5.81223 52.7165 6.3581 52.8728 7.44985H48.7524C48.8179 7.08559 48.9764 6.74224 49.2139 6.4501C49.5917 6.02394 50.1507 5.81131 50.8914 5.81223Z" fill="#201515"/>
<path d="M43.5945 0.000887889C43.3784 -0.00611183 43.1631 0.0283331 42.9612 0.102178C42.7594 0.176023 42.5753 0.287758 42.4196 0.430744C42.2663 0.575103 42.1459 0.748262 42.0665 0.939227C41.9871 1.13019 41.9502 1.33479 41.9581 1.54006C41.9504 1.74666 41.9874 1.95256 42.067 2.14492C42.1464 2.33728 42.2668 2.51198 42.4203 2.65808C42.5738 2.80419 42.7573 2.91859 42.9595 2.99416C43.1616 3.06972 43.3777 3.10482 43.5945 3.09726C43.8101 3.10502 44.025 3.06994 44.2256 2.99428C44.4261 2.91859 44.6079 2.80398 44.7593 2.6577C44.9098 2.50992 45.0269 2.33473 45.1043 2.14266C45.1816 1.9506 45.2173 1.74562 45.2094 1.54006C45.2193 1.33572 45.1844 1.13165 45.1068 0.940885C45.0292 0.750119 44.9108 0.576851 44.7591 0.432141C44.6071 0.28743 44.4254 0.174459 44.2251 0.100443C44.025 0.0264269 43.8107 -0.00700475 43.5961 0.00227589L43.5945 0.000887889Z" fill="#201515"/>
<path d="M37.6597 3.55615C36.6812 3.55615 35.8949 3.84873 35.3011 4.4339C34.8612 4.86745 34.5384 5.51455 34.3328 6.37521H34.2411L33.8654 3.81962H31.4121V15.9999H34.2847V10.983H34.3895C34.4771 11.3175 34.6 11.6427 34.7563 11.9537C34.9994 12.4602 35.398 12.8847 35.8995 13.1712C36.4193 13.4414 37.005 13.5758 37.5971 13.5608C38.7998 13.5608 39.7154 13.1148 40.3444 12.2227C40.9733 11.3306 41.288 10.0859 41.288 8.48847C41.288 6.94558 40.9835 5.73782 40.3752 4.86515C39.7665 3.99249 38.8614 3.55615 37.6597 3.55615ZM37.9509 10.4145C37.6159 10.8767 37.0918 11.1078 36.3783 11.1078C36.0843 11.1208 35.7911 11.0667 35.5233 10.9503C35.2552 10.8338 35.0203 10.6582 34.838 10.4381C34.4661 9.99344 34.2808 9.38469 34.2819 8.61186V8.43159C34.2819 7.64675 34.4672 7.04587 34.838 6.62895C35.2087 6.21203 35.7223 6.0059 36.3783 6.0105C37.1045 6.0105 37.6319 6.23007 37.9611 6.66917C38.2902 7.10827 38.4546 7.72071 38.4546 8.50648C38.4567 9.31904 38.2897 9.95506 37.9537 10.4145H37.9509Z" fill="#201515"/>
<path d="M10.3838 10.9639H0.445312V13.2823H10.3838V10.9639Z" fill="#FF4F00"/>
</g>
<defs>
<clipPath id="clip0_10192_991">
<rect width="63" height="16" fill="white"/>
</clipPath>
</defs>
</svg>
