<svg width="5" height="10" viewBox="0 0 5 10" fill="none" xmlns="http://www.w3.org/2000/svg">
<path d="M4.99999 4.98016C5.00046 5.06237 4.98471 5.14387 4.95362 5.21998C4.92253 5.29609 4.87673 5.36531 4.81883 5.42368L1.07076 9.17176C0.953128 9.28939 0.793588 9.35547 0.627235 9.35547C0.460882 9.35547 0.301342 9.28939 0.183713 9.17176C0.0660836 9.05413 -2.01458e-08 8.89459 -2.74173e-08 8.72823C-3.46889e-08 8.56188 0.0660835 8.40234 0.183713 8.28471L3.49451 4.98016L0.18996 1.6756C0.0876206 1.5561 0.034144 1.40238 0.0402166 1.24517C0.0462892 1.08795 0.111464 0.938815 0.222716 0.827563C0.333968 0.71631 0.483103 0.651137 0.64032 0.645065C0.797536 0.638992 0.951255 0.692468 1.07076 0.794806L4.81883 4.54288C4.93424 4.65924 4.9993 4.81628 4.99999 4.98016Z" fill="white"/>
</svg>
