<svg width="80" height="81" viewBox="0 0 80 81" fill="none" xmlns="http://www.w3.org/2000/svg">
<circle cx="40" cy="40.166" r="40" fill="#1F419A"/>
<g clip-path="url(#clip0_8117_638)">
<path d="M44.5038 13.9638C44.376 13.5693 44.0408 13.2875 43.6305 13.2275L41.7693 12.9568L40.9362 11.2702V11.2695C40.7524 10.8981 40.381 10.6676 39.9667 10.6676C39.5525 10.6676 39.1804 10.8987 38.9966 11.2708L38.1642 12.9575L36.3023 13.2282C35.892 13.2881 35.5574 13.5707 35.429 13.9645C35.3012 14.359 35.406 14.7838 35.703 15.0736L37.0498 16.3868L36.7317 18.2407C36.6619 18.6497 36.8272 19.0548 37.1624 19.2984C37.497 19.5421 37.933 19.5731 38.3011 19.3808L39.9667 18.5048L41.6317 19.3801C41.7917 19.4637 41.9642 19.5052 42.1361 19.5052C42.3594 19.5052 42.5813 19.4354 42.771 19.2978C43.1069 19.0541 43.2715 18.6491 43.2011 18.2401L42.8836 16.3861L44.2311 15.0729C44.5281 14.7831 44.6322 14.3583 44.5038 13.9638Z" fill="#FFD164"/>
<path d="M44.5034 64.0559C44.3763 63.6607 44.041 63.3788 43.6301 63.3189L41.7689 63.0482L40.9358 61.3616C40.7527 60.9895 40.3806 60.7583 39.9656 60.7583C39.5514 60.7583 39.1793 60.9895 38.9955 61.3616L38.1631 63.0482L36.3006 63.3189C35.8903 63.3788 35.5557 63.662 35.4279 64.0559C35.3002 64.4504 35.4055 64.8745 35.7019 65.1636L37.0487 66.4775L36.7306 68.3315C36.6608 68.7404 36.8261 69.1455 37.1613 69.3892C37.351 69.5268 37.573 69.5966 37.7956 69.5966C37.9675 69.5966 38.14 69.5551 38.3001 69.4708L39.9663 68.5962L41.6312 69.4715C41.9967 69.6644 42.4341 69.6342 42.7693 69.3898C43.1058 69.1461 43.2705 68.7411 43.2 68.3321L42.8826 66.4782L44.23 65.1643C44.5271 64.8745 44.6318 64.4504 44.5034 64.0559Z" fill="#FFD164"/>
<path d="M19.4585 39.0095C19.3308 38.615 18.9955 38.3331 18.5852 38.2732L16.7234 38.0025L15.8909 36.3152C15.7072 35.9438 15.3351 35.7133 14.9208 35.7133C14.5066 35.7133 14.1345 35.9444 13.9507 36.3165L13.1183 38.0032L11.2564 38.2739C10.8461 38.3338 10.5115 38.6163 10.3831 39.0102C10.2554 39.4047 10.3601 39.8295 10.6571 40.1186L12.0039 41.4325L11.6858 43.2864C11.616 43.6954 11.7813 44.1004 12.1165 44.3441C12.3062 44.4818 12.5282 44.5516 12.7508 44.5516C12.9226 44.5516 13.0952 44.5101 13.2552 44.4258L14.9202 43.5505L16.5851 44.4258C16.9526 44.6201 17.3892 44.5884 17.7238 44.3441C18.0597 44.1004 18.2243 43.6954 18.1545 43.2864L17.8377 41.4318L19.1845 40.1186C19.4816 39.8295 19.5863 39.4047 19.4585 39.0095Z" fill="#FFD164"/>
<path d="M69.549 39.0095C69.4212 38.615 69.086 38.3331 68.6757 38.2731L66.8145 38.0025L65.9814 36.3158C65.7983 35.9444 65.4262 35.7125 65.0113 35.7125C64.5964 35.7125 64.2249 35.9437 64.0412 36.3158L63.2081 38.0025L61.3469 38.2731C60.9366 38.3331 60.6013 38.615 60.4736 39.0095C60.3458 39.404 60.4499 39.8287 60.7469 40.1185L62.0944 41.4318L61.7769 43.2857C61.7071 43.6947 61.8718 44.0997 62.2077 44.3434C62.3967 44.481 62.6186 44.5509 62.8419 44.5509C63.0138 44.5509 63.1863 44.5094 63.3464 44.4251L65.0113 43.5498L66.6762 44.4251C67.0417 44.618 67.4797 44.5877 67.8143 44.3434C68.1508 44.0997 68.3155 43.6947 68.245 43.2857L67.9276 41.4318L69.275 40.1179C69.5727 39.8287 69.6774 39.404 69.549 39.0095Z" fill="#FFD164"/>
<path d="M32.212 17.3194C32.0842 16.9249 31.749 16.643 31.3387 16.5831L29.4768 16.313L28.6444 14.6264C28.4606 14.2549 28.0892 14.0238 27.6742 14.0238C27.26 14.0238 26.8879 14.2549 26.7041 14.627L25.8717 16.3137L24.0098 16.5837C23.5995 16.6437 23.265 16.9262 23.1365 17.32C23.0088 17.7145 23.1135 18.1393 23.4105 18.4284L24.7573 19.7417L24.4392 21.5963C24.3694 22.0053 24.5347 22.4103 24.87 22.654C25.0596 22.7916 25.2816 22.8614 25.5042 22.8614C25.6761 22.8614 25.8486 22.82 26.0087 22.7363L27.6736 21.861L29.3385 22.7363C29.7067 22.9299 30.1427 22.899 30.4772 22.6546C30.8131 22.411 30.9777 22.0053 30.9079 21.5969L30.5898 19.7423L31.9367 18.4291C32.235 18.1387 32.3397 17.7139 32.212 17.3194Z" fill="#FFD164"/>
<path d="M22.8136 26.2334C22.6852 25.8389 22.3506 25.5577 21.9409 25.4978L20.0791 25.2271L19.2466 23.5404C19.0636 23.1683 18.6914 22.9372 18.2765 22.9372C17.8616 22.9372 17.4902 23.1683 17.3071 23.5398L16.474 25.2271L14.6128 25.4978C14.2025 25.5571 13.8679 25.8389 13.7395 26.2334C13.611 26.6279 13.7158 27.0534 14.0135 27.3432L15.3603 28.6564L15.0415 30.5103C14.9717 30.9193 15.137 31.3244 15.4722 31.568C15.8075 31.8117 16.2435 31.8433 16.6109 31.6504L18.2759 30.7744L19.9415 31.6504C20.1015 31.734 20.274 31.7755 20.4459 31.7755C20.6692 31.7755 20.8911 31.7057 21.0808 31.568C21.416 31.3244 21.5814 30.9193 21.5109 30.5103L21.1928 28.6564L22.5403 27.3432C22.8373 27.0527 22.9427 26.6279 22.8136 26.2334Z" fill="#FFD164"/>
<path d="M57.0265 17.3194C56.8988 16.9249 56.5636 16.643 56.1532 16.5831L54.2921 16.313L53.4596 14.6264C53.2758 14.2543 52.9037 14.0231 52.4888 14.0231C52.0739 14.0231 51.7025 14.2543 51.5181 14.6264L50.6856 16.313L48.8244 16.5831C48.4141 16.643 48.0789 16.9249 47.9511 17.3194C47.8233 17.7139 47.9274 18.1387 48.2244 18.4284L49.5719 19.7417L49.2545 21.5963C49.1847 22.0053 49.3493 22.4103 49.6852 22.654C49.8742 22.7916 50.0962 22.8614 50.3194 22.8614C50.4913 22.8614 50.6639 22.8199 50.8232 22.7363L52.4888 21.861L54.1538 22.7363C54.5199 22.9293 54.9566 22.899 55.2925 22.6546C55.629 22.411 55.7937 22.0059 55.7232 21.5969L55.4057 19.7423L56.7532 18.4291C57.0503 18.138 57.1543 17.7132 57.0265 17.3194Z" fill="#FFD164"/>
<path d="M66.1945 26.4877C66.0667 26.0925 65.7322 25.8106 65.3212 25.7507L63.4594 25.48L62.6269 23.7927C62.4432 23.4213 62.071 23.1908 61.6568 23.1908H61.6555C61.2412 23.1908 60.8704 23.4226 60.6867 23.794L59.8536 25.4807L57.9924 25.7514C57.5821 25.8113 57.2469 26.0932 57.1191 26.4877C56.9913 26.8822 57.0954 27.307 57.3924 27.5967L58.7399 28.91L58.4224 30.7639C58.3526 31.1729 58.5173 31.5779 58.8525 31.8216C59.0422 31.9593 59.2641 32.0291 59.4874 32.0291C59.6593 32.0291 59.8312 31.9876 59.9919 31.9039L61.6568 31.028L63.3217 31.9039C63.6885 32.0969 64.1265 32.0653 64.4604 31.8216C64.7963 31.5779 64.961 31.1729 64.8905 30.7639L64.573 28.91L65.9192 27.5974C66.2169 27.307 66.3223 26.8822 66.1945 26.4877Z" fill="#FFD164"/>
<path d="M22.3141 51.7842C22.1857 51.3904 21.8511 51.1092 21.4414 51.0499L19.5789 50.7785L18.7471 49.0919C18.5634 48.7198 18.1919 48.4886 17.777 48.4886C17.3621 48.4893 16.9907 48.7204 16.8076 49.0919L15.9751 50.7785L14.1133 51.0499C13.703 51.1092 13.3684 51.391 13.24 51.7849C13.1115 52.1794 13.2163 52.6042 13.5139 52.8946L14.8608 54.2078L14.5427 56.0618C14.4729 56.4708 14.6382 56.8758 14.9734 57.1195C15.1631 57.2571 15.385 57.3269 15.6076 57.3269C15.7795 57.3269 15.9521 57.2854 16.1121 57.2011L17.777 56.3259L19.442 57.2011C19.8088 57.3948 20.2461 57.3632 20.5813 57.1188C20.9165 56.8751 21.0812 56.4701 21.0114 56.0618L20.6933 54.2078L22.0408 52.8939C22.3385 52.6042 22.4425 52.1787 22.3141 51.7842Z" fill="#FFD164"/>
<path d="M66.1944 51.534C66.0673 51.1389 65.7327 50.8563 65.3211 50.7964L63.4593 50.5257L62.6268 48.8391C62.443 48.4676 62.0709 48.2365 61.6567 48.2365H61.6554C61.2411 48.2371 60.8703 48.4683 60.6866 48.8397L59.8535 50.5264L57.9916 50.7971C57.5813 50.857 57.2461 51.1395 57.119 51.534C56.9912 51.9285 57.0959 52.3527 57.3923 52.6418L58.7398 53.9557L58.4223 55.8096C58.3525 56.2186 58.5172 56.6236 58.8531 56.8673C59.0421 57.005 59.264 57.0748 59.4873 57.0748C59.6592 57.0748 59.8317 57.0333 59.9918 56.949L61.6567 56.0737L63.3209 56.949C63.6898 57.1433 64.1251 57.111 64.4603 56.8673C64.7962 56.6236 64.9608 56.2186 64.8904 55.8096L64.5729 53.9557L65.9191 52.6424C66.2168 52.3527 66.3222 51.9279 66.1944 51.534Z" fill="#FFD164"/>
<path d="M32.212 60.1378C32.0842 59.7433 31.7497 59.4608 31.3381 59.4008L29.4762 59.1302L28.6437 57.4435C28.46 57.0714 28.0886 56.8402 27.6736 56.8402C27.2594 56.8402 26.8873 57.0714 26.7035 57.4435L25.8711 59.1302L24.0086 59.4008C23.5983 59.4608 23.2637 59.744 23.1359 60.1378C23.0082 60.5323 23.1135 60.9564 23.4099 61.2456L24.7567 62.5595L24.4386 64.4134C24.3688 64.8224 24.5341 65.2274 24.8694 65.4711C25.059 65.6087 25.281 65.6786 25.5036 65.6786C25.6755 65.6786 25.848 65.6371 26.0081 65.5528L27.673 64.6775L29.3379 65.5528C29.7061 65.747 30.142 65.7148 30.4766 65.4711C30.8125 65.2274 30.9771 64.8224 30.9073 64.4134L30.5892 62.5595L31.9354 61.2462C32.2344 60.9564 32.3398 60.5323 32.212 60.1378Z" fill="#FFD164"/>
<path d="M57.0269 60.1378C56.8998 59.7426 56.5646 59.4608 56.1536 59.4008L54.2924 59.1302L53.46 57.4435C53.2762 57.0721 52.9041 56.8402 52.4892 56.8402C52.0743 56.8402 51.7028 57.0721 51.5184 57.4435L50.686 59.1302L48.8241 59.4008C48.4138 59.4608 48.0786 59.7433 47.9515 60.1378C47.8237 60.5323 47.9284 60.9564 48.2248 61.2456L49.5723 62.5594L49.2548 64.4134C49.185 64.8224 49.3497 65.2274 49.6856 65.4711C49.8746 65.6087 50.0965 65.6785 50.3198 65.6785C50.4917 65.6785 50.6642 65.6371 50.8243 65.5528L52.4892 64.6775L54.1541 65.5528C54.5203 65.7457 54.957 65.7154 55.2928 65.4711C55.6294 65.2274 55.794 64.8224 55.7236 64.4134L55.4061 62.5594L56.7536 61.2456C57.05 60.9564 57.1547 60.5323 57.0269 60.1378Z" fill="#FFD164"/>
<path d="M28.853 45.0659C26.1323 45.0659 23.9194 42.853 23.9194 40.1324C23.9194 37.4117 26.1323 35.1989 28.853 35.1989C29.638 35.1989 30.4197 35.3885 31.1132 35.7461C31.4366 35.9128 31.5637 36.3099 31.3964 36.6333C31.2292 36.9566 30.832 37.0837 30.5093 36.9165C29.9943 36.6504 29.4371 36.516 28.853 36.516C26.8587 36.516 25.2366 38.1382 25.2366 40.1324C25.2366 42.1266 26.8587 43.7487 28.853 43.7487C29.3054 43.7487 29.7414 43.6677 30.155 43.5077V41.1078H28.7403C28.3768 41.1078 28.0817 40.8134 28.0817 40.4492C28.0817 40.0856 28.3768 39.7906 28.7403 39.7906H30.8136C31.1771 39.7906 31.4722 40.0856 31.4722 40.4492V43.9318C31.4722 44.1781 31.3352 44.404 31.1159 44.5173C30.4211 44.8762 29.6387 45.0659 28.853 45.0659Z" fill="white"/>
<path d="M36.2341 45.0659C35.4484 45.0659 34.6654 44.8762 33.9706 44.5173C33.7519 44.404 33.6143 44.1781 33.6143 43.9318L33.6162 36.3303C33.6162 36.084 33.7539 35.8581 33.9732 35.7455C34.6667 35.3879 35.4484 35.1982 36.2335 35.1982C38.9535 35.1982 41.167 37.4111 41.167 40.1317C41.167 42.8524 38.9548 45.0659 36.2341 45.0659ZM34.9321 43.5077C35.345 43.6677 35.7817 43.7487 36.2341 43.7487C38.2284 43.7487 39.8505 42.1266 39.8505 40.1324C39.8505 38.1382 38.2284 36.5161 36.2341 36.5161C35.7823 36.5161 35.3464 36.5971 34.9341 36.7564L34.9321 43.5077Z" fill="white"/>
<path d="M45.0278 35.1989C44.4391 35.1989 43.876 35.3134 43.3537 35.5393C43.1127 35.6434 42.9559 35.8812 42.9559 36.1433L42.9546 40.7363V44.4073C42.9546 44.7715 43.249 45.0659 43.6132 45.0659C43.9774 45.0659 44.2718 44.7715 44.2718 44.4073V41.6129C44.5181 41.6564 44.7697 41.6827 45.0272 41.6827C47.0906 41.6827 48.7693 40.2285 48.7693 38.4411C48.7693 36.6537 47.0906 35.1989 45.0278 35.1989ZM45.0278 40.3655C44.7703 40.3655 44.5148 40.3326 44.2724 40.2694L44.2738 36.6129C44.5161 36.5496 44.7717 36.5167 45.0285 36.5167C46.3654 36.5167 47.4534 37.3801 47.4534 38.4411C47.4534 39.5021 46.3648 40.3655 45.0278 40.3655Z" fill="white"/>
<path d="M56.0136 38.4405C56.0136 36.653 54.3349 35.1989 52.2715 35.1989C51.6827 35.1989 51.1196 35.3134 50.5973 35.5393C50.3563 35.6434 50.1996 35.8812 50.1996 36.1433L50.1982 40.7363V44.4073C50.1982 44.7715 50.4926 45.0659 50.8568 45.0659C51.221 45.0659 51.5154 44.7715 51.5154 44.4073V41.6129C51.7617 41.6564 52.0133 41.6827 52.2708 41.6827C52.7687 41.6827 53.2436 41.5964 53.6782 41.443C54.3349 41.9356 54.6958 42.9703 54.6958 44.408C54.6958 44.7722 54.9902 45.0666 55.3544 45.0666C55.7186 45.0666 56.013 44.7722 56.013 44.408C56.013 42.8148 55.6178 41.5589 54.8828 40.758C55.5796 40.1686 56.0136 39.348 56.0136 38.4405ZM52.2722 40.3655C52.0146 40.3655 51.7591 40.3326 51.5167 40.2694L51.5181 36.6129C51.7604 36.5496 52.016 36.5167 52.2728 36.5167C53.6098 36.5167 54.6977 37.3801 54.6977 38.4411C54.6977 39.5021 53.6091 40.3655 52.2722 40.3655Z" fill="white"/>
</g>
<defs>
<clipPath id="clip0_8117_638">
<rect width="60" height="60" fill="white" transform="translate(10 10.166)"/>
</clipPath>
</defs>
</svg>
