<svg width="65" height="24" viewBox="0 0 65 24" fill="none" xmlns="http://www.w3.org/2000/svg">
<path fill-rule="evenodd" clip-rule="evenodd" d="M9.80949 5.10355C9.97118 4.70255 10.3602 4.43994 10.7926 4.43994H28.06C28.3633 4.43994 28.652 4.56984 28.8532 4.79677C29.0544 5.0237 29.1487 5.32593 29.1124 5.62701L27.5426 18.627C27.4783 19.1594 27.0265 19.5599 26.4903 19.5599H8.2809C7.69548 19.5599 7.2209 19.0854 7.2209 18.4999C7.2209 17.9145 7.69548 17.4399 8.2809 17.4399H25.5506L26.7112 7.82763L18.961 13.6056C18.5451 13.9157 17.9658 13.8792 17.5921 13.5193L10.0573 6.26348C9.74588 5.96357 9.6478 5.50455 9.80949 5.10355ZM24.8647 6.55994H13.4215L18.4149 11.3684L24.8647 6.55994ZM2.82558 9.43019C2.82558 8.84476 3.30016 8.37019 3.88558 8.37019H9.85071C10.4361 8.37019 10.9107 8.84476 10.9107 9.43019C10.9107 10.0156 10.4361 10.4902 9.85071 10.4902H3.88558C3.30016 10.4902 2.82558 10.0156 2.82558 9.43019ZM0 12.1511C0 11.5657 0.474578 11.0911 1.06 11.0911H12.6763C13.2617 11.0911 13.7363 11.5657 13.7363 12.1511C13.7363 12.7365 13.2617 13.2111 12.6763 13.2111H1.06C0.474578 13.2111 0 12.7365 0 12.1511ZM4.39535 15.1744C4.39535 14.5889 4.86993 14.1144 5.45535 14.1144H14.8739C15.4594 14.1144 15.9339 14.5889 15.9339 15.1744C15.9339 15.7598 15.4594 16.2344 14.8739 16.2344H5.45535C4.86993 16.2344 4.39535 15.7598 4.39535 15.1744Z" fill="#F88E40"/>
<path d="M37.1191 8.375V11.75H40.4941C40.8926 11.75 41.2441 12.1016 41.2441 12.5C41.2441 12.9219 40.8926 13.25 40.4941 13.25H37.1191V16.625C37.1191 17.0469 36.7676 17.375 36.3691 17.375C35.9473 17.375 35.6191 17.0469 35.6191 16.625V13.25H32.2441C31.8223 13.25 31.4941 12.9219 31.4941 12.5C31.4941 12.1016 31.8223 11.75 32.2441 11.75H35.6191V8.375C35.6191 7.97656 35.9473 7.625 36.3691 7.625C36.7676 7.625 37.1191 7.97656 37.1191 8.375Z" fill="#B5B5B5"/>
<path d="M56.6196 12.0047C56.6196 12.7258 56.4894 13.4409 56.2353 14.1156C55.5603 14.3698 54.845 14.5001 54.1237 14.5002H54.1149C53.3936 14.5003 52.6783 14.3701 52.0033 14.1159C51.7487 13.4411 51.6183 12.7257 51.6184 12.0044V11.995C51.6184 11.2518 51.7548 10.5401 52.0017 9.88342C52.6768 9.62887 53.3925 9.49868 54.114 9.49914H54.1221C54.8656 9.49914 55.577 9.63551 56.2337 9.88342C56.4882 10.5583 56.6184 11.2737 56.618 11.995V12.0044H56.6189L56.6196 12.0047ZM63.9806 10.3331H58.1436L62.2706 6.20581C61.6216 5.29442 60.8249 4.4979 59.9133 3.84918L55.7856 7.97643V2.1392C55.2368 2.04688 54.6812 2.00032 54.1246 2H54.114C53.5477 2 52.9931 2.04839 52.4527 2.1392V7.97643L48.3241 3.84886C47.8694 4.17247 47.4427 4.53362 47.0483 4.92852L47.0464 4.9304C46.6521 5.32501 46.2913 5.75172 45.9677 6.20613L50.0963 10.3331H44.258C44.258 10.3331 44.1191 11.4297 44.1191 11.9965V12.0035C44.1191 12.5703 44.1672 13.1258 44.2583 13.6666H50.0966L45.9674 17.7932C46.6168 18.7045 47.4136 19.5012 48.325 20.1505L52.453 16.0236V21.8611C52.9928 21.9516 53.5465 21.9994 54.1121 22H54.1262C54.6821 21.9995 55.237 21.953 55.7853 21.8611V16.0236L59.9136 20.1515C60.3683 19.8276 60.7953 19.4664 61.1903 19.0718H61.1912C61.5853 18.6768 61.946 18.2498 62.2696 17.7951L58.1426 13.6669H63.9809C64.0714 13.1265 64.1191 12.5728 64.1191 12.0072V11.9928C64.1191 11.4366 64.0726 10.882 63.9809 10.3337L63.9806 10.3331Z" fill="#FF4A00"/>
</svg>
