
<svg width="124" height="21" viewBox="0 0 124 21" fill="none" xmlns="http://www.w3.org/2000/svg">
  <path fill-rule="evenodd" clip-rule="evenodd" d="M13.0169 0.679036C13.1873 0.268001 13.5887 0 14.0339 0H36.9796C37.2937 0 37.5928 0.134074 37.8017 0.368473C38.0106 0.602872 38.1093 0.915269 38.073 1.22703L35.9871 19.1531C35.9225 19.7077 35.4524 20.126 34.8936 20.126H10.6962C10.0883 20.126 9.59544 19.6335 9.59544 19.026C9.59544 18.4185 10.0883 17.926 10.6962 17.926H33.9134L35.5838 3.57085L24.7204 11.975C24.2821 12.314 23.66 12.2746 23.2681 11.883L13.2555 1.87778C12.9407 1.56319 12.8465 1.09007 13.0169 0.679036ZM33.7595 2.19996H16.6914L24.1393 9.64233L33.7595 2.19996ZM3.75475 6.5195C3.75475 5.91199 4.2476 5.41951 4.85555 5.41951H12.7823C13.3902 5.41951 13.8831 5.91199 13.8831 6.5195C13.8831 7.127 13.3902 7.61948 12.7823 7.61948H4.85555C4.2476 7.61948 3.75475 7.127 3.75475 6.5195ZM0 10.2714C0 9.66391 0.492845 9.17143 1.1008 9.17143H16.537C17.1449 9.17143 17.6378 9.66391 17.6378 10.2714C17.6378 10.8789 17.1449 11.3714 16.537 11.3714H1.1008C0.492845 11.3714 0 10.8789 0 10.2714ZM5.84073 14.4403C5.84073 13.8328 6.33358 13.3403 6.94153 13.3403H19.4574C20.0653 13.3403 20.5582 13.8328 20.5582 14.4403C20.5582 15.0478 20.0653 15.5403 19.4574 15.5403H6.94153C6.33358 15.5403 5.84073 15.0478 5.84073 14.4403Z" fill="#F88E40"/>
  <path d="M57.9908 19.1622H54.5551L54.4258 5.22296H54.3742L49.3626 19.1622H45.9269L45.6169 0.886248H48.6393L48.536 15.2644H48.6135L53.6509 0.886248H56.7767L56.88 15.2644H56.9575L61.8399 0.886248H64.6814L57.9908 19.1622ZM75.9637 5.32614C75.9637 6.35873 75.8173 7.27081 75.5245 8.06238C75.2489 8.85405 74.8529 9.52522 74.3363 10.0759C73.8196 10.6093 73.1996 11.0223 72.4763 11.3149C71.753 11.5903 70.9521 11.7279 70.0738 11.7279H67.8522L66.5348 19.1622H63.6415L66.8189 0.886248H71.4688C72.0716 0.886248 72.6399 0.972287 73.1738 1.14438C73.7249 1.31647 74.2071 1.58321 74.6204 1.9446C75.0337 2.30599 75.3609 2.77063 75.602 3.33853C75.8431 3.88925 75.9637 4.5518 75.9637 5.32614ZM73.1221 5.73915C73.1221 5.0164 72.9412 4.44852 72.5796 4.0355C72.2352 3.60526 71.7013 3.39016 70.978 3.39016H69.273L68.2656 9.32727H70.0997C71.0296 9.32727 71.7616 9.00892 72.2954 8.37212C72.8466 7.73541 73.1221 6.85779 73.1221 5.73915ZM90.9891 4.24196C90.3519 3.45039 89.5252 3.05457 88.5091 3.05457C88.1819 3.05457 87.8461 3.12341 87.5016 3.26108C87.1744 3.38155 86.8731 3.57085 86.5975 3.82894C86.3391 4.06986 86.1239 4.3797 85.9517 4.75826C85.7795 5.13691 85.6934 5.57567 85.6934 6.07474C85.6934 6.72867 85.8742 7.2622 86.2358 7.67521C86.5975 8.071 87.0797 8.44965 87.6825 8.81098C88.0613 9.05189 88.4403 9.31866 88.8191 9.61116C89.2152 9.90377 89.5682 10.248 89.8782 10.6438C90.1883 11.0223 90.438 11.4612 90.6274 11.9602C90.8168 12.4421 90.9116 13.0013 90.9116 13.6381C90.9116 14.619 90.748 15.4795 90.4208 16.2195C90.1107 16.9595 89.6802 17.579 89.1291 18.078C88.5952 18.5771 87.9752 18.9557 87.2691 19.2138C86.563 19.4719 85.8139 19.6011 85.0217 19.6011C84.0056 19.6011 83.0671 19.4204 82.2059 19.0589C81.362 18.6804 80.7076 18.1985 80.2427 17.6134L82.0768 15.4451C82.4212 15.8925 82.8517 16.2539 83.3684 16.5292C83.8851 16.8046 84.4361 16.9423 85.0217 16.9423C85.8483 16.9423 86.5286 16.6927 87.0624 16.1937C87.6136 15.6946 87.8891 14.9805 87.8891 14.0512C87.8891 13.3972 87.7082 12.8379 87.3466 12.3732C87.0022 11.9086 86.4598 11.4526 85.7192 11.0052C85.3403 10.7814 84.9701 10.5319 84.6084 10.2566C84.2467 9.96397 83.9281 9.63701 83.6525 9.27568C83.377 8.89703 83.1532 8.4754 82.9809 8.01079C82.8259 7.52896 82.7484 6.96959 82.7484 6.33288C82.7484 5.45526 82.8948 4.65498 83.1875 3.93222C83.4975 3.20946 83.9108 2.58994 84.4275 2.07367C84.9442 1.55739 85.5555 1.16159 86.2617 0.886248C86.9677 0.593692 87.7341 0.447418 88.5607 0.447418C89.4907 0.447418 90.326 0.602296 91.0665 0.912063C91.8071 1.20461 92.4013 1.61763 92.849 2.15111L90.9891 4.24196ZM108.124 19.1622H105.257L107.762 5.04225H107.684L101.537 19.1622H99.108L97.9972 5.04225H97.9197L95.4656 19.1622H92.7789L96.008 0.886248H99.9609L101.123 14.335H101.226L107.039 0.886248H111.353L108.124 19.1622ZM121.64 4.24196C121.003 3.45039 120.176 3.05457 119.16 3.05457C118.833 3.05457 118.498 3.12341 118.153 3.26108C117.826 3.38155 117.524 3.57085 117.249 3.82894C116.99 4.06986 116.775 4.3797 116.603 4.75826C116.43 5.13691 116.344 5.57567 116.344 6.07474C116.344 6.72867 116.525 7.2622 116.886 7.67521C117.249 8.071 117.731 8.44965 118.333 8.81098C118.713 9.05189 119.092 9.31866 119.47 9.61116C119.867 9.90377 120.22 10.248 120.529 10.6438C120.839 11.0223 121.089 11.4612 121.278 11.9602C121.467 12.4421 121.563 13.0013 121.563 13.6381C121.563 14.619 121.399 15.4795 121.072 16.2195C120.762 16.9595 120.331 17.579 119.78 18.078C119.247 18.5771 118.626 18.9557 117.92 19.2138C117.214 19.4719 116.465 19.6011 115.673 19.6011C114.656 19.6011 113.718 19.4204 112.857 19.0589C112.014 18.6804 111.359 18.1985 110.894 17.6134L112.728 15.4451C113.072 15.8925 113.503 16.2539 114.02 16.5292C114.536 16.8046 115.087 16.9423 115.673 16.9423C116.499 16.9423 117.179 16.6927 117.713 16.1937C118.265 15.6946 118.54 14.9805 118.54 14.0512C118.54 13.3972 118.359 12.8379 117.998 12.3732C117.653 11.9086 117.111 11.4526 116.37 11.0052C115.991 10.7814 115.621 10.5319 115.26 10.2566C114.898 9.96397 114.579 9.63701 114.304 9.27568C114.028 8.89703 113.804 8.4754 113.632 8.01079C113.477 7.52896 113.399 6.96959 113.399 6.33288C113.399 5.45526 113.546 4.65498 113.839 3.93222C114.148 3.20946 114.562 2.58994 115.079 2.07367C115.595 1.55739 116.207 1.16159 116.912 0.886248C117.619 0.593692 118.385 0.447418 119.212 0.447418C120.142 0.447418 120.977 0.602296 121.718 0.912063C122.458 1.20461 123.053 1.61763 123.5 2.15111L121.64 4.24196Z" fill="#F88E40"/>
</svg>
