<svg width="204" height="28" viewBox="0 0 204 28" fill="none" xmlns="http://www.w3.org/2000/svg">
<path d="M42.0586 23L36.4102 4.98828H40.207L44.1914 18.6875L48.1758 4.98828H51.9023L46.2656 23H42.0586Z" fill="#556E79"/>
<path d="M54.5273 23V4.98828H65.1445V8.29297H58.0664V12.3711H64.8633V15.5H58.0664V19.6836H65.25V23H54.5273Z" fill="#556E79"/>
<path d="M69.0352 23V4.98828H76.3828C77.4609 4.98828 78.4141 5.22656 79.2422 5.70312C80.0703 6.17969 80.6953 6.80469 81.1172 7.57812C81.5469 8.34375 81.7617 9.18359 81.7617 10.0977C81.7617 10.7617 81.6445 11.3945 81.4102 11.9961C81.1836 12.5898 80.8516 13.1211 80.4141 13.5898C79.9844 14.0508 79.4336 14.4219 78.7617 14.7031C78.0977 14.9766 77.3555 15.1172 76.5352 15.125L82.8398 23H78.5156L72.7031 15.125H72.5625V23H69.0352ZM72.5625 12.5469H75.5625C76.375 12.5469 77.0078 12.3359 77.4609 11.9141C77.9141 11.4922 78.1406 10.9414 78.1406 10.2617C78.1406 9.58984 77.9141 9.05078 77.4609 8.64453C77.0078 8.23828 76.3828 8.03516 75.5859 8.03516H72.5625V12.5469Z" fill="#556E79"/>
<path d="M93.2227 23.2578C91.4883 23.2578 89.9219 22.8555 88.5234 22.0508C87.1328 21.2383 86.0469 20.125 85.2656 18.7109C84.4922 17.2969 84.1055 15.7148 84.1055 13.9648C84.1055 12.6602 84.332 11.4375 84.7852 10.2969C85.2461 9.14844 85.875 8.16406 86.6719 7.34375C87.4688 6.52344 88.4336 5.875 89.5664 5.39844C90.6992 4.92188 91.918 4.68359 93.2227 4.68359C94.5273 4.68359 95.7461 4.92188 96.8789 5.39844C98.0117 5.875 98.9766 6.52344 99.7734 7.34375C100.57 8.16406 101.195 9.14844 101.648 10.2969C102.109 11.4375 102.34 12.6602 102.34 13.9648C102.34 15.2695 102.109 16.4961 101.648 17.6445C101.195 18.793 100.57 19.7812 99.7734 20.6094C98.9766 21.4297 98.0117 22.0781 96.8789 22.5547C95.7461 23.0234 94.5273 23.2578 93.2227 23.2578ZM87.7266 13.9648C87.7266 15.7539 88.2461 17.1953 89.2852 18.2891C90.332 19.3828 91.6445 19.9297 93.2227 19.9297C94.8008 19.9297 96.1094 19.3867 97.1484 18.3008C98.1953 17.207 98.7188 15.7617 98.7188 13.9648C98.7188 12.1914 98.1953 10.7578 97.1484 9.66406C96.1094 8.5625 94.8008 8.01172 93.2227 8.01172C91.6523 8.01172 90.3438 8.5625 89.2969 9.66406C88.25 10.7578 87.7266 12.1914 87.7266 13.9648Z" fill="#556E79"/>
<path d="M119.016 4.98828V23H115.758L108.891 11.5742V23H105.574V4.98828H108.738L115.711 16.8711V4.98828H119.016Z" fill="#556E79"/>
<path d="M121.582 23L127.125 4.98828H131.344L136.91 23H133.066L132.258 20.1992H126.141L125.355 23H121.582ZM126.973 17.2344H131.414L129.938 12.1016L129.258 9.33594H129.129L128.414 12.1016L126.973 17.2344Z" fill="#556E79"/>
<path d="M146.426 23V4.98828H149.953V19.6836H156.012V23H146.426Z" fill="#556E79"/>
<path d="M156.996 23L162.539 4.98828H166.758L172.324 23H168.48L167.672 20.1992H161.555L160.77 23H156.996ZM162.387 17.2344H166.828L165.352 12.1016L164.672 9.33594H164.543L163.828 12.1016L162.387 17.2344Z" fill="#556E79"/>
<path d="M174.973 23V4.98828H181.828C183.383 4.98828 184.648 5.43359 185.625 6.32422C186.609 7.21484 187.102 8.29297 187.102 9.55859C187.102 10.5977 186.844 11.4648 186.328 12.1602C185.812 12.8555 185.176 13.3516 184.418 13.6484V13.7188C185.348 14.0859 186.074 14.6562 186.598 15.4297C187.129 16.1953 187.395 17.0781 187.395 18.0781C187.395 19.5234 186.918 20.707 185.965 21.6289C185.012 22.543 183.727 23 182.109 23H174.973ZM178.5 19.7539H181.301C182.121 19.7539 182.738 19.5547 183.152 19.1562C183.566 18.75 183.773 18.2031 183.773 17.5156C183.773 16.8281 183.543 16.2812 183.082 15.875C182.629 15.4688 182.023 15.2656 181.266 15.2656H178.5V19.7539ZM178.5 12.3477H181.137C181.91 12.3477 182.496 12.1523 182.895 11.7617C183.293 11.3633 183.492 10.8438 183.492 10.2031C183.492 9.60938 183.285 9.12891 182.871 8.76172C182.465 8.39453 181.895 8.21094 181.16 8.21094H178.5V12.3477Z" fill="#556E79"/>
<path d="M196.664 23.2578C195.391 23.2578 194.238 23.0195 193.207 22.543C192.184 22.0664 191.344 21.3438 190.688 20.375C190.039 19.4062 189.672 18.2617 189.586 16.9414L193.078 16.5078C193.195 17.5391 193.586 18.3867 194.25 19.0508C194.922 19.7148 195.777 20.0469 196.816 20.0469C197.684 20.0469 198.352 19.8398 198.82 19.4258C199.289 19.0117 199.523 18.4766 199.523 17.8203C199.523 17.2344 199.316 16.7461 198.902 16.3555C198.496 15.957 197.93 15.6758 197.203 15.5117L195.164 15.0664C193.656 14.7383 192.457 14.1523 191.566 13.3086C190.684 12.457 190.242 11.3555 190.242 10.0039C190.242 8.42578 190.844 7.14453 192.047 6.16016C193.25 5.17578 194.754 4.68359 196.559 4.68359C198.363 4.68359 199.867 5.1875 201.07 6.19531C202.281 7.20312 202.961 8.53906 203.109 10.2031L199.793 10.7891C199.715 9.92969 199.371 9.22266 198.762 8.66797C198.152 8.11328 197.418 7.83594 196.559 7.83594C195.77 7.83594 195.125 8.03516 194.625 8.43359C194.125 8.83203 193.875 9.32031 193.875 9.89844C193.875 10.4766 194.066 10.9336 194.449 11.2695C194.84 11.6055 195.414 11.8555 196.172 12.0195L198.316 12.4766C199.902 12.8125 201.105 13.4375 201.926 14.3516C202.746 15.2578 203.156 16.3633 203.156 17.668C203.156 19.3164 202.562 20.6602 201.375 21.6992C200.195 22.7383 198.625 23.2578 196.664 23.2578Z" fill="#556E79"/>
<path d="M27.4657 28H0.509524C0.163192 28 -0.0869367 27.642 0.0285074 27.304L6.41641 12.3295C6.53186 11.9716 6.97439 11.8523 7.24376 12.1108L13.3623 20.2642C13.6894 20.5824 14.2089 20.5824 14.5552 20.2642L20.77 12.1108C21.0393 11.8523 21.4819 11.9716 21.5973 12.3295L27.9852 27.3239C28.0622 27.642 27.8313 28 27.4657 28Z" fill="#556E79"/>
<path d="M14.7092 15.9688C14.3051 16.3665 13.6702 16.3665 13.2661 15.9688L7.12833 7.77557C6.99365 7.63636 6.91669 7.45739 6.91669 7.25852V0.894886C6.91669 0.397727 7.3015 0 7.78252 0H20.1928C20.6738 0 21.0778 0.397727 21.0778 0.914773V7.25852C21.0778 7.45739 21.0009 7.63636 20.8662 7.77557L14.7092 15.9688Z" fill="#556E79"/>
</svg>
