<svg width="187" height="41" viewBox="0 0 187 41" fill="none" xmlns="http://www.w3.org/2000/svg">
<path d="M133.725 40.824H131.831C131.343 40.824 130.945 40.433 130.945 39.9475V16.9187C130.945 16.4365 131.34 16.0423 131.831 16.0423H133.725C134.212 16.0423 134.611 16.4333 134.611 16.9187V39.9475C134.611 40.433 134.212 40.824 133.725 40.824Z" fill="white"/>
<path d="M72.0223 23.0898H70.1382C69.9702 23.0898 69.799 23.0996 69.631 23.1061C66.2252 23.2136 64.5124 24.9046 64.4466 28.2801C64.4103 30.121 64.44 31.9618 64.4367 33.806C64.4334 35.3569 64.4334 36.9077 64.4334 38.4619V40.3419C64.4334 40.5993 64.6442 40.811 64.9044 40.811H67.6382C67.9083 40.811 68.1257 40.5927 68.1257 40.3256V38.4619C68.0829 35.5198 68.1125 32.5744 68.1158 29.629C68.1158 27.3385 68.3036 26.8856 70.1481 26.7683H72.0387C72.299 26.7683 72.513 26.5598 72.513 26.2991V23.5753C72.513 23.3081 72.2924 23.0898 72.0223 23.0898Z" fill="white"/>
<path d="M170.516 27.7815C170.441 25.0512 168.915 23.3895 166.178 23.1744C164.848 23.0702 163.504 23.0343 162.163 23.0506H160.243C160.138 23.0506 160.039 23.0865 159.96 23.1419C159.841 23.2266 159.765 23.3634 159.765 23.5166V26.2306C159.765 26.4978 159.986 26.7128 160.259 26.7128H161.781C162.878 26.7128 164.011 26.7356 164.97 26.7422C166.221 26.7519 166.906 27.3156 166.89 28.6319C166.863 30.8572 166.863 33.0826 166.89 35.3079C166.903 36.6242 166.264 37.1748 164.97 37.152C163.487 37.1227 162.005 37.1488 160.523 37.1455C158.655 37.1423 158.039 37.0022 157.848 35.9074V16.7623C157.848 16.3225 157.489 15.9674 157.045 15.9674H154.907C154.462 15.9674 154.103 16.3225 154.103 16.7623V35.9107C154.252 39.133 155.869 40.6806 159.179 40.7784C161.481 40.8468 163.794 40.8533 166.089 40.7295C168.86 40.5829 170.417 38.9962 170.506 36.2463C170.602 33.4312 170.595 30.6031 170.516 27.7815Z" fill="white"/>
<path d="M47.0094 27.9249C46.9304 30.6358 46.9271 33.3563 47.0127 36.0671C47.1049 38.993 48.6596 40.5634 51.6108 40.7589C53.1951 40.8632 59.2656 40.7785 60.8565 40.7785L60.8005 37.126C58.0601 37.2368 55.313 37.1358 52.5693 37.1684C51.2386 37.1847 50.6589 36.5526 50.6589 35.295C50.6556 33.125 50.6754 30.9518 50.6523 28.7818C50.6359 27.3254 51.3803 26.7292 52.7933 26.7487C54.3842 26.7716 55.9751 26.765 57.5693 26.7487C58.811 26.7357 59.8025 27.055 59.7827 28.5114C59.7629 30.0069 58.6826 30.1894 57.4869 30.1829C55.9487 30.1731 54.4138 30.2154 52.8789 30.1666C52.1115 30.1438 51.7623 30.3653 51.8414 31.1668C51.8941 31.7044 51.8875 32.2551 51.8414 32.7927C51.7821 33.5258 51.9797 33.8744 52.8262 33.8451C54.7992 33.7832 56.7821 33.9004 58.7517 33.7864C61.9599 33.6007 63.4981 31.7598 63.4651 28.3387C63.4322 25.0773 61.8248 23.2755 58.6529 23.1419C56.3539 23.0442 54.0416 23.0377 51.7393 23.1485C48.7518 23.2853 47.0984 24.9698 47.0094 27.9249Z" fill="white"/>
<path d="M85.5135 40.697C87.8554 40.4755 89.2981 38.9832 89.4661 36.6569C89.5748 35.1483 89.5221 33.6789 89.5221 32.1606C89.5352 32.1606 89.5748 29.2836 89.5122 27.8761C89.387 24.9665 87.8521 23.3114 84.947 23.1517C82.5425 23.0214 80.1216 23.0279 77.7172 23.1485C75.0228 23.2853 73.4813 24.6114 73.2178 27.2179C72.8885 30.5022 72.8094 33.8223 73.287 37.1032C73.5999 39.2569 74.9701 40.4852 77.1374 40.6905C79.9273 40.9609 82.7303 40.9609 85.5135 40.697ZM76.8081 35.5524C76.7817 33.1641 76.7817 30.7791 76.8015 28.3909C76.8114 27.3417 77.424 26.7846 78.4583 26.765C80.3785 26.7325 82.2988 26.7227 84.2158 26.7716C85.3291 26.7976 85.8923 27.4264 85.866 28.5636C85.8396 29.7039 85.8594 30.841 85.8594 31.9814C85.8594 33.1217 85.8462 34.2621 85.8627 35.3992C85.8791 36.5233 85.3884 37.1456 84.2092 37.1456C82.2889 37.1456 80.3686 37.1391 78.4484 37.1489C77.3614 37.1521 76.8212 36.5819 76.8081 35.5524Z" fill="white"/>
<path d="M107.259 40.3614V40.3353L107.279 29.5247V28.6156C107.276 28.4495 107.279 28.2833 107.276 28.1171C107.229 24.9078 105.523 23.194 102.266 23.1289C98.8073 23.0572 95.3488 23.1354 91.8903 23.0865C91.001 23.0735 90.777 23.37 90.7935 24.2041C90.8396 26.5988 90.8165 28.9968 90.8132 31.3916V40.4233C90.8132 40.6807 91.024 40.8892 91.2843 40.8892H94.0148C94.2816 40.8892 94.499 40.6741 94.499 40.407V31.3851C94.499 30.3359 94.4957 29.2868 94.4693 28.2377C94.4397 26.9768 94.8448 26.7259 96.0537 26.7259C97.8389 26.7259 99.5648 26.7357 101.324 26.7552C103.05 26.7748 103.537 27.1266 103.613 28.6254V28.6287L103.593 39.7716V40.3777C103.593 40.635 103.801 40.8403 104.061 40.8403H106.775C107.042 40.8403 107.259 40.6253 107.259 40.3614Z" fill="white"/>
<path d="M39.4994 39.9411C42.4539 32.4342 45.4776 24.9567 48.5376 17.4922C49.002 16.3584 48.6594 16.2378 47.6285 16.2313C45.0264 16.215 45.0231 16.1792 44.0514 18.6196C41.9105 23.9988 39.7662 29.3781 37.5133 35.0408C35.257 29.3748 33.1161 23.9956 30.9751 18.6196C30.0034 16.1792 30.0034 16.215 27.398 16.2313C26.3704 16.2378 26.0245 16.3584 26.489 17.4922C29.5522 24.9567 32.5726 32.4342 35.5271 39.9411C35.9553 41.0326 36.6667 40.9772 37.51 41C38.3598 40.9772 39.0712 41.0326 39.4994 39.9411Z" fill="white"/>
<path d="M172.423 40.7687H178.718C179.95 40.7784 181.181 40.8273 182.407 40.7491C185.595 40.5471 187.058 38.7584 186.998 35.2461C186.946 32.0465 185.361 30.3392 182.242 30.2122C180.654 30.147 179.06 30.2024 177.473 30.1666C176.178 30.1372 175.592 29.4628 175.714 28.1725C175.819 27.0322 176.61 26.765 177.558 26.7487C178.747 26.7324 179.933 26.7324 181.122 26.7357H181.603C182.12 26.7357 182.634 26.7389 183.151 26.7389C183.405 26.7389 183.625 26.7389 183.816 26.7357H186.293C186.399 26.7357 186.494 26.6998 186.573 26.6445C186.692 26.5597 186.768 26.4262 186.768 26.273V23.572C186.768 23.3081 186.547 23.093 186.277 23.093H184.587C184.574 23.093 184.564 23.093 184.551 23.093C184.544 23.093 184.535 23.093 184.528 23.093H181.261C179.778 23.0865 178.299 23.08 176.82 23.1354C173.612 23.256 171.939 25.149 171.942 28.4658C171.942 31.7826 173.612 33.6333 176.827 33.7962C178.25 33.8678 179.679 33.8483 181.102 33.8125C182.347 33.7831 183.332 34.034 183.322 35.523C183.313 37.0576 182.232 37.1684 181.04 37.1553C180.315 37.1488 179.591 37.1488 178.866 37.1456H172.413C172.308 37.1456 172.213 37.1814 172.133 37.2368C172.018 37.3215 171.939 37.4551 171.939 37.6082V40.2897C171.936 40.5569 172.153 40.7687 172.423 40.7687Z" fill="white"/>
<path d="M152.4 28.0129C152.335 24.9697 150.691 23.2983 147.618 23.1321C147.177 23.1093 146.735 23.0995 146.297 23.0963H137.809C137.529 23.0963 137.298 23.3211 137.298 23.6013V26.2372C137.298 26.5141 137.526 26.7422 137.809 26.7422H146.297C146.422 26.7422 146.551 26.7422 146.676 26.7422C148.079 26.7389 148.807 27.3319 148.771 28.8079C148.721 30.9778 148.748 33.151 148.761 35.321C148.767 36.5069 148.25 37.1586 146.995 37.1488C145.131 37.1358 143.263 37.1292 141.399 37.1521C140.213 37.1651 139.667 36.546 139.673 35.4578C139.68 34.337 140.322 33.8026 141.468 33.8222C142.73 33.845 143.991 33.8254 145.253 33.8254C145.312 33.8254 145.368 33.8254 145.424 33.8254H146.913C147.018 33.8254 147.114 33.7896 147.193 33.7342C147.312 33.6495 147.387 33.5159 147.387 33.3628V30.6683C147.387 30.4044 147.167 30.1893 146.897 30.1893H145.335H145.339V30.1861C143.731 30.1926 142.121 30.16 140.516 30.2349C137.588 30.3718 136.004 32.1866 135.945 35.3144C135.885 38.5954 137.381 40.5438 140.325 40.7165C142.786 40.8599 145.263 40.8501 147.727 40.7523C150.763 40.6318 152.325 39.006 152.394 35.9921C152.456 33.3335 152.456 30.6715 152.4 28.0129Z" fill="white"/>
<path d="M124.733 28.0911C124.67 24.8948 122.961 23.2266 119.703 23.1191C119.387 23.1093 119.071 23.1028 118.754 23.0996H118.741C118.738 23.0996 118.731 23.0996 118.728 23.0996H109.809C109.575 23.0996 109.384 23.2885 109.384 23.5199V26.3251C109.384 26.5565 109.575 26.7455 109.809 26.7455H118.728C118.827 26.7455 118.929 26.7455 119.028 26.7455C120.22 26.7455 121.08 27.1364 121.08 28.4984C121.083 30.8312 121.09 33.1673 121.077 35.5002C121.07 36.6405 120.447 37.1586 119.308 37.1521C117.444 37.139 115.576 37.1325 113.712 37.1521C112.529 37.1651 111.982 36.5395 111.989 35.4546C111.996 34.337 112.631 33.8027 113.778 33.819C114.888 33.8352 115.994 33.8222 117.104 33.8222V33.8287H118.992C119.252 33.8287 119.463 33.6202 119.463 33.3628V30.6585C119.463 30.3914 119.245 30.1763 118.975 30.1763H117.108C115.645 30.1763 114.186 30.1633 112.727 30.2415C109.888 30.3946 108.346 32.1996 108.274 35.2558C108.195 38.5498 109.657 40.5178 112.589 40.71C115.102 40.8729 117.635 40.8697 120.151 40.7491C123.115 40.6057 124.644 38.9897 124.723 36.0671C124.792 33.4084 124.785 30.7465 124.733 28.0911Z" fill="white"/>
<path d="M15.3921 0.174974C15.2274 0.477985 15.1451 0.644152 15.0397 0.820093C13.6497 3.03566 13.5707 3.05195 15.2142 5.06224C15.6688 5.61613 16.1003 6.20261 16.4527 6.82166C17.095 7.95551 16.9863 9.05677 16.2221 10.132C15.29 11.4385 13.8407 12.4062 13.6859 14.2438C13.6365 14.8368 12.9909 14.7586 12.6451 14.7553C12.2696 14.7488 11.5153 14.7716 11.624 13.7779C11.7426 12.6896 12.1807 11.8555 12.9086 11.0736C15.2702 8.54524 15.2768 8.52243 13.1458 5.77578C12.0654 4.38128 11.5186 3.06824 12.5232 1.29253C13.2248 0.0609375 13.989 -0.238815 15.3921 0.174974Z" fill="white"/>
<path d="M24.7795 37.8102C24.5589 36.2853 23.8375 34.9984 22.8955 33.8156C21.2223 31.7174 19.5688 29.6061 17.8626 27.5371C17.3059 26.8627 17.026 26.1948 17.0392 25.3085C17.0655 23.6697 17.0392 22.0341 17.0392 20.3789C17.0392 19.5448 17.217 19.1441 18.1492 19.219C19.2987 19.3102 20.1617 18.8215 20.0991 17.5899C20.0398 16.4561 19.1834 16.1302 18.1063 16.1368C16.2091 16.1498 14.3152 16.1531 12.418 16.1531C10.5208 16.1531 8.62683 16.1465 6.72961 16.1368C5.65254 16.1302 4.79286 16.4561 4.73687 17.5899C4.67429 18.8215 5.53726 19.3135 6.68679 19.219C7.61893 19.1441 7.79679 19.5448 7.79679 20.3789C7.79679 22.0341 7.77374 23.6729 7.79679 25.3085C7.80997 26.1948 7.53 26.8659 6.97335 27.5371C5.26717 29.6061 3.61369 31.7174 1.94044 33.8156C0.995129 35.0016 0.277084 36.2853 0.0564004 37.8102C-0.236746 39.8172 0.609756 40.8338 2.66837 40.8435C5.91604 40.8598 9.16371 40.8468 12.4147 40.8468C15.6623 40.8468 18.91 40.8598 22.161 40.8435C24.2262 40.8338 25.0727 39.8172 24.7795 37.8102ZM20.8698 37.0673C20.491 37.8558 19.6742 37.7548 18.9528 37.758C16.7756 37.7646 14.6017 37.7613 12.4246 37.7613C10.2474 37.7613 8.07347 37.7646 5.89628 37.758C5.17494 37.7548 4.35479 37.8558 3.9793 37.0673C3.58734 36.2495 4.10446 35.5848 4.58865 34.9723C6.31459 32.7893 7.99771 30.5672 9.79941 28.4494C10.6986 27.3938 10.9951 26.3186 10.9951 24.9469C10.9951 23.3862 10.9489 21.8581 10.9489 20.33C10.9489 19.7142 11.6472 19.3461 12.4246 19.2874C13.2019 19.3461 13.9002 19.7142 13.9002 20.33C13.9002 21.8581 13.8541 23.3895 13.8541 24.9469C13.8541 26.3153 14.1505 27.3938 15.0497 28.4494C16.8547 30.5672 18.5378 32.7861 20.2605 34.9723C20.7447 35.5848 21.2585 36.2495 20.8698 37.0673Z" fill="white"/>
</svg>
