<svg width="128" height="128" viewBox="0 0 128 128" fill="none" xmlns="http://www.w3.org/2000/svg">
<rect width="128" height="128" fill="#F88E40"/>
<path d="M45.8605 81C44.7559 81 43.8605 81.8954 43.8605 83C43.8605 84.1046 44.7559 85 45.8605 85V81ZM98.4651 83V85C99.4803 85 100.334 84.2394 100.452 83.231L98.4651 83ZM103 44L104.987 44.231C105.053 43.6642 104.873 43.0962 104.494 42.67C104.114 42.2438 103.571 42 103 42V44ZM53.1163 44V42C52.3074 42 51.5781 42.4873 51.2685 43.2346C50.959 43.982 51.1301 44.8422 51.7021 45.4142L53.1163 44ZM74.8837 65.7674L73.4695 67.1817C74.1815 67.8937 75.3119 67.9653 76.1081 67.3489L74.8837 65.7674ZM33.1628 53.7907C32.0582 53.7907 31.1628 54.6861 31.1628 55.7907C31.1628 56.8953 32.0582 57.7907 33.1628 57.7907V53.7907ZM50.3953 57.7907C51.4999 57.7907 52.3953 56.8953 52.3953 55.7907C52.3953 54.6861 51.4999 53.7907 50.3953 53.7907V57.7907ZM25 61.9535C23.8954 61.9535 23 62.8489 23 63.9535C23 65.0581 23.8954 65.9535 25 65.9535V61.9535ZM58.5581 65.9535C59.6627 65.9535 60.5581 65.0581 60.5581 63.9535C60.5581 62.8489 59.6627 61.9535 58.5581 61.9535V65.9535ZM64.907 75.0233C66.0115 75.0233 66.907 74.1278 66.907 73.0233C66.907 71.9187 66.0115 71.0233 64.907 71.0233V75.0233ZM37.6977 71.0233C36.5931 71.0233 35.6977 71.9187 35.6977 73.0233C35.6977 74.1278 36.5931 75.0233 37.6977 75.0233V71.0233ZM45.8605 85H98.4651V81H45.8605V85ZM100.452 83.231L104.987 44.231L101.013 43.769L96.4785 82.769L100.452 83.231ZM103 42H53.1163V46H103V42ZM51.7021 45.4142L73.4695 67.1817L76.2979 64.3532L54.5305 42.5858L51.7021 45.4142ZM76.1081 67.3489L104.224 45.5814L101.776 42.4186L73.6594 64.186L76.1081 67.3489ZM33.1628 57.7907H50.3953V53.7907H33.1628V57.7907ZM25 65.9535H58.5581V61.9535H25V65.9535ZM64.907 71.0233H37.6977V75.0233H64.907V71.0233Z" fill="white"/>
</svg>
