<svg width="20" height="20" viewBox="0 0 20 20" fill="none" xmlns="http://www.w3.org/2000/svg">
<path d="M15.1329 6.84818L15.1331 6.84819L15.134 6.83542C15.1455 6.66968 15.1387 6.50318 15.1138 6.33893C15.0854 6.11413 14.9752 5.90749 14.804 5.75868L14.7976 5.75316L14.7911 5.74785C14.6517 5.63475 14.4964 5.58136 14.3846 5.55465C14.2696 5.52717 14.1607 5.51849 14.0802 5.51983L14.0796 5.51984C13.8017 5.52478 13.4956 5.60346 12.9532 5.80032C12.4021 6.0003 11.5529 6.34376 10.1662 6.92056L10.1662 6.92057C9.18987 7.32672 7.24454 8.16471 4.33401 9.43276C4.08259 9.53315 3.85964 9.64417 3.68734 9.77212C3.5263 9.8917 3.3233 10.0901 3.28638 10.3845C3.25801 10.6108 3.32352 10.8179 3.45715 10.9822C3.57487 11.1268 3.72846 11.2178 3.85376 11.2785C4.0404 11.3689 4.29072 11.4474 4.52225 11.52C4.58639 11.5401 4.64909 11.5598 4.70859 11.5791C4.97075 11.6644 5.28165 11.758 5.57635 11.8319C5.85946 11.9029 6.1676 11.9662 6.40683 11.9714C6.87504 11.9815 7.33894 11.7892 7.7834 11.4843C8.25983 11.1627 8.69574 10.869 9.09119 10.6033C8.96815 10.7182 8.8839 10.7976 8.85808 10.8245L8.858 10.8245C8.79463 10.8904 8.72892 10.9543 8.65975 11.0211C8.65191 11.0287 8.64398 11.0363 8.63599 11.044C8.5757 11.1021 8.51153 11.164 8.45175 11.2249C8.32403 11.3548 8.16444 11.53 8.07144 11.742C7.96344 11.9883 7.95041 12.2723 8.09766 12.5543C8.22604 12.8002 8.45482 13.0016 8.72774 13.1815L9.00286 12.764L8.72775 13.1815C9.13302 13.4486 9.45712 13.6693 9.78346 13.8915L9.82763 13.9216C10.1691 14.1541 10.5165 14.3902 10.9604 14.6812C11.0686 14.7521 11.171 14.8251 11.2797 14.9026C11.3022 14.9186 11.325 14.9349 11.3482 14.9513C11.4781 15.0437 11.6196 15.1424 11.7666 15.2287C12.0634 15.4031 12.4267 15.5537 12.8646 15.5134C13.4901 15.4559 13.8445 14.8792 13.9936 14.0822C14.3247 12.3129 14.98 8.45488 15.1329 6.84818ZM0.5 10C0.5 4.75328 4.75328 0.5 10 0.5C15.2467 0.5 19.5 4.75328 19.5 10C19.5 15.2467 15.2467 19.5 10 19.5C4.75328 19.5 0.5 15.2467 0.5 10Z" stroke="white"/>
</svg>
