<svg width="20" height="20" viewBox="0 0 20 20" fill="none" xmlns="http://www.w3.org/2000/svg">
<path d="M6 9C6.28333 9 6.521 8.904 6.713 8.712C6.905 8.52 7.00067 8.28267 7 8C7 7.71667 6.904 7.47933 6.712 7.288C6.52 7.09667 6.28267 7.00067 6 7C5.71667 7 5.47933 7.096 5.288 7.288C5.09667 7.48 5.00067 7.71733 5 8C5 8.28333 5.096 8.521 5.288 8.713C5.48 8.905 5.71733 9.00067 6 9ZM10 9C10.2833 9 10.521 8.904 10.713 8.712C10.905 8.52 11.0007 8.28267 11 8C11 7.71667 10.904 7.47933 10.712 7.288C10.52 7.09667 10.2827 7.00067 10 7C9.71667 7 9.47933 7.096 9.288 7.288C9.09667 7.48 9.00067 7.71733 9 8C9 8.28333 9.096 8.521 9.288 8.713C9.48 8.905 9.71733 9.00067 10 9ZM14 9C14.2833 9 14.521 8.904 14.713 8.712C14.905 8.52 15.0007 8.28267 15 8C15 7.71667 14.904 7.47933 14.712 7.288C14.52 7.09667 14.2827 7.00067 14 7C13.7167 7 13.4793 7.096 13.288 7.288C13.0967 7.48 13.0007 7.71733 13 8C13 8.28333 13.096 8.521 13.288 8.713C13.48 8.905 13.7173 9.00067 14 9ZM0 20V2C0 1.45 0.196 0.979333 0.588 0.588C0.98 0.196667 1.45067 0.000666667 2 0H18C18.55 0 19.021 0.196 19.413 0.588C19.805 0.98 20.0007 1.45067 20 2V14C20 14.55 19.8043 15.021 19.413 15.413C19.0217 15.805 18.5507 16.0007 18 16H4L0 20ZM3.15 14H18V2H2V15.125L3.15 14Z" fill="white"/>
</svg>
