<svg width="20" height="20" viewBox="0 0 20 20" fill="none" xmlns="http://www.w3.org/2000/svg">
<path d="M8.3647 4.42998L8.90553 5.39915C9.39303 6.27415 9.1972 7.42082 8.42886 8.18998C8.42886 8.18998 7.49553 9.12248 9.1872 10.8133C10.8764 12.5025 11.8097 11.5716 11.8097 11.5716C12.5789 10.8025 13.7264 10.6066 14.6005 11.0941L15.5697 11.6358C16.8905 12.3725 17.0464 14.2241 15.8855 15.3858C15.188 16.0825 14.333 16.6258 13.3889 16.6608C11.7989 16.7216 9.09803 16.3191 6.38886 13.6108C3.68053 10.9016 3.27803 8.20082 3.33886 6.61082C3.3747 5.66665 3.9172 4.81165 4.61386 4.11415C5.77553 2.95332 7.6272 3.10915 8.36386 4.43082L8.3647 4.42998Z" stroke="white" stroke-width="1.5" stroke-linecap="round"/>
</svg>
