<svg width="24" height="25" viewBox="0 0 24 25" fill="none" xmlns="http://www.w3.org/2000/svg">
<path d="M18.9863 13.32V9.225C18.9863 9.065 18.9563 8.96 18.8963 8.91C18.8463 8.85 18.7363 8.82 18.5663 8.82H18.0563V7.5H19.0763C19.6563 7.5 20.0713 7.63 20.3213 7.89C20.5813 8.15 20.7113 8.515 20.7113 8.985V13.32H18.9863ZM18.9863 15.24V12.81H20.7113V15.48C20.7113 15.95 20.5813 16.315 20.3213 16.575C20.0713 16.835 19.6563 16.965 19.0763 16.965H17.9963V15.645H18.5663C18.7363 15.645 18.8463 15.615 18.8963 15.555C18.9563 15.495 18.9863 15.39 18.9863 15.24ZM17.3363 9.225V13.32H15.6113V8.985C15.6113 8.515 15.7413 8.15 16.0013 7.89C16.2613 7.63 16.6763 7.5 17.2463 7.5H18.2663V8.82H17.7713C17.6013 8.82 17.4863 8.85 17.4263 8.91C17.3663 8.96 17.3363 9.065 17.3363 9.225ZM17.3363 12.735V15.24C17.3363 15.39 17.3663 15.495 17.4263 15.555C17.4863 15.615 17.6013 15.645 17.7713 15.645H18.2513V16.965H17.2463C16.6763 16.965 16.2613 16.835 16.0013 16.575C15.7413 16.315 15.6113 15.95 15.6113 15.48V12.735H17.3363Z" fill="#171717"/>
<path d="M12.6156 11.595V9.225C12.6156 9.065 12.5856 8.96 12.5256 8.91C12.4756 8.85 12.3656 8.82 12.1956 8.82H9.61559V7.5H12.7056C13.2856 7.5 13.7006 7.63 13.9506 7.89C14.2106 8.15 14.3406 8.515 14.3406 8.985V11.79C14.3406 12.26 14.2106 12.625 13.9506 12.885C13.7006 13.145 13.2856 13.275 12.7056 13.275H9.96059V12H12.1956C12.3656 12 12.4756 11.97 12.5256 11.91C12.5856 11.85 12.6156 11.745 12.6156 11.595ZM9.22559 7.5H10.9506V16.965H9.22559V7.5ZM11.2506 12.6H12.9756L14.8206 16.965H12.9606L11.2506 12.6Z" fill="#171717"/>
<path d="M6.39 11.76V9.225C6.39 9.065 6.36 8.96 6.3 8.91C6.25 8.85 6.14 8.82 5.97 8.82H3.39V7.5H6.48C7.06 7.5 7.475 7.63 7.725 7.89C7.985 8.15 8.115 8.515 8.115 8.985V12C8.115 12.47 7.985 12.835 7.725 13.095C7.475 13.355 7.06 13.485 6.48 13.485H3.735V12.165H5.97C6.14 12.165 6.25 12.135 6.3 12.075C6.36 12.015 6.39 11.91 6.39 11.76ZM3 7.5H4.725V16.965H3V7.5Z" fill="#171717"/>
</svg>
